<svg xmlns="http://www.w3.org/2000/svg" xmlns:xlink="http://www.w3.org/1999/xlink" width="28" height="28" id="atom"><defs><linearGradient id="b" x1="1056.035" x2="1031.176" y1="544.13" y2="517.701" gradientTransform="translate(-922.68 -462.595) scale(.89708)" gradientUnits="userSpaceOnUse" xlink:href="#a"></linearGradient><linearGradient id="a"><stop offset="0" stop-color="#5a5a5a"></stop><stop offset="1" stop-color="#656e85"></stop></linearGradient></defs><rect width="28" height="28" fill="url(#b)" rx="5.917" ry="5.917"></rect><path fill="#fff" d="M14.45 6.03c-1.245 0-2.34 1.249-3.034 3.187-.223-.03-.453-.074-.666-.087-1.8-.1-3 .3-3.5 1.3-.534 1.016-.075 2.375 1.059 3.725-1.066 1.302-1.48 2.586-.96 3.574.4.8 1.5 1.301 3 1.301h.5c.2-.012.408-.053.612-.078.695 1.873 1.768 3.078 2.988 3.078 1.221 0 2.296-1.206 2.99-3.08.204.026.415.068.61.08h.5c1.5 0 2.6-.5 3-1.3.52-.99.106-2.3-.96-3.614 1.134-1.34 1.595-2.67 1.06-3.686-.5-.9-1.7-1.4-3.5-1.3-.218.012-.445.055-.668.084-.693-1.937-1.788-3.184-3.032-3.184zm0 1c.712 0 1.476.893 2.029 2.355-.678.15-1.369.358-2.06.622a16.07 16.07 0 0 0-2.005-.608c.553-1.47 1.32-2.369 2.035-2.369zm-4.1 3h.4c.129.009.27.036.403.05a13.832 13.832 0 0 0-.36 1.854c-.64.448-1.229.911-1.719 1.385-.807-.991-1.115-1.905-.824-2.488.2-.5 1-.801 2.1-.801zm7.799 0h.4c1.1 0 1.901.3 2.201.8.299.548-.025 1.468-.879 2.487-.5-.49-1.11-.965-1.771-1.42a13.81 13.81 0 0 0-.354-1.814c.133-.015.273-.044.403-.053zm-6.01.201c.363.074.732.16 1.11.274-.166.077-.334.142-.499.224-.298.157-.568.327-.847.492.066-.352.148-.674.236-.99zm4.621.004c.086.309.169.623.234.967-.278-.16-.548-.324-.845-.473-.165-.078-.328-.14-.492-.213.376-.115.742-.205 1.103-.281zm-2.291.7c.429.173.859.371 1.281.595.502.244.963.505 1.397.773.06.55.103 1.12.103 1.727 0 .549-.03 1.072-.076 1.574-.442.285-.91.563-1.424.826-.43.215-.854.403-1.271.573-.412-.17-.823-.358-1.229-.573a15.575 15.575 0 0 1-1.529-.861 16.946 16.946 0 0 1-.072-1.539c0-.593.04-1.152.097-1.69.436-.279.899-.551 1.403-.81.446-.223.887-.422 1.32-.596zm-.02 1.595c-.822 0-1.5.677-1.5 1.5 0 .822.678 1.5 1.5 1.5.823 0 1.5-.678 1.5-1.5 0-.823-.677-1.5-1.5-1.5zm3.752.486c.408.307.759.618 1.077.928-.316.311-.664.623-1.069.936.014-.283.041-.558.041-.85 0-.348-.029-.678-.049-1.014zm-7.507.059c-.018.316-.045.627-.045.955 0 .283.026.548.039.822a10.817 10.817 0 0 1-1.016-.888 11.82 11.82 0 0 1 1.022-.89zm3.755.455c.283 0 .5.218.5.5 0 .282-.217.5-.5.5a.493.493 0 0 1-.5-.5c0-.282.218-.5.5-.5zm5.561 1.228c.736.945 1.02 1.812.74 2.372-.3.6-1.2.9-2.5.8-.152-.01-.319-.042-.476-.06.126-.49.226-1.007.302-1.555.733-.501 1.393-1.023 1.934-1.557zm-11.11.057c.54.533 1.198 1.05 1.926 1.54.077.538.178 1.045.303 1.527-.125.013-.256.04-.379.048-1.3.1-2.301-.2-2.601-.8-.282-.516.006-1.367.752-2.315zm8.071 2.195c-.048.247-.104.477-.162.706a12.447 12.447 0 0 1-.777-.188c.072-.035.146-.062.218-.098.254-.133.48-.28.721-.42zm-5.04.018c.24.134.465.276.718.402.083.04.165.07.248.108-.272.075-.54.143-.803.197-.059-.228-.114-.46-.162-.707zm2.55 1.16c.684.25 1.35.453 1.994.596-.535 1.398-1.277 2.246-2.026 2.246-.746 0-1.485-.842-2.019-2.232a14.582 14.582 0 0 0 2.05-.61z"></path></svg>